<svg width="96" height="86" viewBox="0 0 96 86" fill="none" xmlns="http://www.w3.org/2000/svg">
<path fill-rule="evenodd" clip-rule="evenodd" d="M27.4648 79.0472L40.0427 82.3947V78.0172L41.0694 76.9873H48.2566V82.137V85.7418H40.556L31.0584 81.622L27.4648 79.0472Z" fill="#CDBDB2"/>
<path fill-rule="evenodd" clip-rule="evenodd" d="M68.5352 79.0472L56.2142 82.3947V78.0172L55.1875 76.9873H48.0003V82.137V85.7418H55.7009L65.198 81.622L68.5352 79.0472Z" fill="#CDBDB2"/>
<path fill-rule="evenodd" clip-rule="evenodd" d="M41.0697 69.5211L40.043 78.0178L41.3262 76.9879H54.6738L56.2139 78.0178L55.1872 69.5211L53.1337 68.2334L42.8663 68.4911L41.0697 69.5211Z" fill="black"/>
<path fill-rule="evenodd" clip-rule="evenodd" d="M34.1387 12.1016L40.2991 26.5207L43.1229 68.4909H53.1334L56.2136 26.5207L61.8607 12.1016H34.1387Z" fill="#F89C35"/>
<path fill-rule="evenodd" clip-rule="evenodd" d="M7.1872 43.7724L0 64.6284L17.968 63.5985H29.5186V54.5867L29.0053 36.0479L26.4384 38.1077L7.1872 43.7724Z" fill="#F89D35"/>
<path fill-rule="evenodd" clip-rule="evenodd" d="M20.791 46.0898L41.8392 46.6048L39.5293 57.4192L29.5183 54.8443L20.791 46.0898Z" fill="#D87C30"/>
<path fill-rule="evenodd" clip-rule="evenodd" d="M20.791 46.3477L29.5183 54.5872V62.8267L20.791 46.3477Z" fill="#EA8D3A"/>
<path fill-rule="evenodd" clip-rule="evenodd" d="M29.5195 54.8438L39.787 57.4186L43.1241 68.4907L40.8137 69.7778L29.5195 63.0833V54.8438Z" fill="#F89D35"/>
<path fill-rule="evenodd" clip-rule="evenodd" d="M29.5183 63.084L27.4648 79.048L41.0694 69.5213L29.5183 63.084Z" fill="#EB8F35"/>
<path fill-rule="evenodd" clip-rule="evenodd" d="M41.8383 46.6045L43.122 68.4909L39.2715 57.2902L41.8383 46.6045Z" fill="#EA8E3A"/>
<path fill-rule="evenodd" clip-rule="evenodd" d="M17.7109 63.3417L29.5185 63.084L27.465 79.048L17.7109 63.3417Z" fill="#D87C30"/>
<path fill-rule="evenodd" clip-rule="evenodd" d="M5.64709 86.0004L27.4651 79.0481L17.7111 63.3418L0 64.629L5.64709 86.0004Z" fill="#EB8F35"/>
<path fill-rule="evenodd" clip-rule="evenodd" d="M40.2991 26.5205L29.2619 35.7899L20.791 46.0893L41.8392 46.862L40.2991 26.5205Z" fill="#E8821E"/>
<path fill-rule="evenodd" clip-rule="evenodd" d="M27.4648 79.0472L41.0694 69.5205L40.0427 77.76V82.3947L30.802 80.5921L27.4648 79.0472Z" fill="#DFCEC3"/>
<path fill-rule="evenodd" clip-rule="evenodd" d="M68.5352 79.0472L55.1875 69.5205L56.2142 77.76V82.3947L65.4549 80.5921L68.5352 79.0472Z" fill="#DFCEC3"/>
<path fill-rule="evenodd" clip-rule="evenodd" d="M36.1919 51.2393L39.0156 57.1616L29.0047 54.5868L36.1919 51.2393Z" fill="black"/>
<path fill-rule="evenodd" clip-rule="evenodd" d="M5.39062 0L40.2999 26.5207L34.3963 12.1015L5.39062 0Z" fill="#E88F35"/>
<path fill-rule="evenodd" clip-rule="evenodd" d="M5.38987 0L0.769531 14.1616L3.33639 29.6107L1.53959 30.6406L4.10645 32.958L2.05296 34.7604L4.8765 37.3352L3.0797 38.8801L7.18667 44.0298L26.4381 38.1077C35.8499 30.5548 40.4703 26.6926 40.2991 26.5209C40.128 26.3492 28.4916 17.5089 5.38987 0Z" fill="#8E5A30"/>
<path fill-rule="evenodd" clip-rule="evenodd" d="M88.8128 43.7724L96 64.6284L78.032 63.5985H66.4814V54.5867L66.9947 36.0479L69.5616 38.1077L88.8128 43.7724Z" fill="#F89D35"/>
<path fill-rule="evenodd" clip-rule="evenodd" d="M75.209 46.0898L54.1608 46.6048L56.4707 57.4192L66.4817 54.8443L75.209 46.0898Z" fill="#D87C30"/>
<path fill-rule="evenodd" clip-rule="evenodd" d="M75.209 46.3477L66.4817 54.5872V62.8267L75.209 46.3477Z" fill="#EA8D3A"/>
<path fill-rule="evenodd" clip-rule="evenodd" d="M66.4805 54.8438L56.213 57.4186L52.8759 68.4907L55.1863 69.7778L66.4805 63.0833V54.8438Z" fill="#F89D35"/>
<path fill-rule="evenodd" clip-rule="evenodd" d="M66.4817 63.084L68.5352 79.048L55.1875 69.7786L66.4817 63.084Z" fill="#EB8F35"/>
<path fill-rule="evenodd" clip-rule="evenodd" d="M54.1617 46.6045L52.878 68.4909L56.7285 57.2902L54.1617 46.6045Z" fill="#EA8E3A"/>
<path fill-rule="evenodd" clip-rule="evenodd" d="M78.2891 63.3417L66.4815 63.084L68.535 79.048L78.2891 63.3417Z" fill="#D87C30"/>
<path fill-rule="evenodd" clip-rule="evenodd" d="M90.3529 86.0004L68.5349 79.0481L78.2889 63.3418L96 64.629L90.3529 86.0004Z" fill="#EB8F35"/>
<path fill-rule="evenodd" clip-rule="evenodd" d="M55.7009 26.5205L66.7381 35.7899L75.209 46.0893L54.1608 46.862L55.7009 26.5205Z" fill="#E8821E"/>
<path fill-rule="evenodd" clip-rule="evenodd" d="M59.8081 51.2393L56.9844 57.1616L66.9953 54.5868L59.8081 51.2393Z" fill="black"/>
<path fill-rule="evenodd" clip-rule="evenodd" d="M90.6094 0L55.7001 26.5207L61.6037 12.1015L90.6094 0Z" fill="#E88F35"/>
<path fill-rule="evenodd" clip-rule="evenodd" d="M90.6101 0L95.2305 14.1616L92.6636 29.6107L94.4604 30.6406L91.8936 32.958L93.947 34.7604L91.1235 37.3352L92.9203 38.8801L88.8133 44.0298L69.5619 38.1077C60.1501 30.5548 55.5297 26.6926 55.7009 26.5209C55.872 26.3492 67.5084 17.5089 90.6101 0Z" fill="#8E5A30"/>
</svg>
