<svg width="20" height="20" viewBox="0 0 20 20" fill="none" xmlns="http://www.w3.org/2000/svg">
<path fill-rule="evenodd" clip-rule="evenodd" d="M17.1875 2.1875H2.8125C2.4668 2.1875 2.1875 2.4668 2.1875 2.8125V17.1875C2.1875 17.5332 2.4668 17.8125 2.8125 17.8125H17.1875C17.5332 17.8125 17.8125 17.5332 17.8125 17.1875V2.8125C17.8125 2.4668 17.5332 2.1875 17.1875 2.1875Z" fill="#FF0083"/>
<path fill-rule="evenodd" clip-rule="evenodd" d="M13.2554 5.99391C13.4533 5.75381 13.7473 5.625 14.0448 5.625H14.9013C15.4351 5.625 15.8982 6.27522 15.4581 6.79987L9.4726 14.0098C9.06569 14.4956 8.30418 14.4985 7.89645 14.008L4.53977 9.96566C4.11072 9.44839 4.5516 8.79111 5.09781 8.79111H5.95439C6.25576 8.79111 6.54594 8.92271 6.7421 9.15809L8.68473 11.4979L13.2554 5.99391ZM14.5013 5.99551L14.4977 5.99988L14.5013 5.99551Z" fill="white"/>
</svg>
