<svg width="16" height="16" viewBox="0 0 16 16" fill="none" xmlns="http://www.w3.org/2000/svg">
<rect opacity="0.01" width="16" height="16" fill="white"/>
<path fill-rule="evenodd" clip-rule="evenodd" d="M5.24174 4.33333H12.5824C13.0892 4.33333 13.5 4.74374 13.5 5.25V12.5833C13.5 13.0896 13.0892 13.5 12.5824 13.5H5.24174C4.73498 13.5 4.32416 13.0896 4.32416 12.5833V5.25C4.32416 4.74374 4.73498 4.33333 5.24174 4.33333V4.33333ZM5.67668 12.2011H12.1383V5.68083H5.67668V12.2011ZM3.41758 3.41666V10.75H3.41758C2.91082 10.75 2.5 10.3396 2.5 9.83333V3.41667V3.41667C2.5 2.91041 2.91082 2.5 3.41758 2.5H9.84067C10.3474 2.5 10.7582 2.91041 10.7582 3.41667H3.41758L3.41758 3.41666Z" fill="white"/>
</svg>
