<svg width="20" height="20" viewBox="0 0 20 20" fill="none" xmlns="http://www.w3.org/2000/svg">
<rect opacity="0.01" width="20" height="20" fill="white"/>
<path fill-rule="evenodd" clip-rule="evenodd" d="M1.25 10C1.25 5.16797 5.16797 1.25 10 1.25C14.832 1.25 18.75 5.16797 18.75 10C18.75 14.832 14.832 18.75 10 18.75C5.16797 18.75 1.25 14.832 1.25 10ZM2.73438 10C2.73438 14.0117 5.98828 17.2656 10 17.2656C14.0117 17.2656 17.2656 14.0117 17.2656 10C17.2656 5.98828 14.0117 2.73438 10 2.73438C5.98828 2.73438 2.73438 5.98828 2.73438 10ZM12.1797 6.18555C11.5938 5.67188 10.8203 5.39062 10 5.39062C9.17969 5.39062 8.40625 5.67383 7.82031 6.18555C7.21094 6.71875 6.875 7.43555 6.875 8.20312V8.35156C6.875 8.4375 6.94531 8.50781 7.03125 8.50781H7.96875C8.05469 8.50781 8.125 8.4375 8.125 8.35156V8.20312C8.125 7.3418 8.9668 6.64062 10 6.64062C11.0332 6.64062 11.875 7.3418 11.875 8.20312C11.875 8.81055 11.4453 9.36719 10.7793 9.62305C10.3652 9.78125 10.0137 10.0586 9.76172 10.4219C9.50586 10.793 9.37305 11.2383 9.37305 11.6895V12.1094C9.37305 12.1953 9.44336 12.2656 9.5293 12.2656H10.4668C10.5527 12.2656 10.623 12.1953 10.623 12.1094V11.666C10.623 11.2812 10.8652 10.9297 11.2266 10.791C12.3789 10.3477 13.123 9.33203 13.123 8.20312C13.125 7.43555 12.7891 6.71875 12.1797 6.18555ZM10 15.0781C9.56853 15.0781 9.21875 14.7283 9.21875 14.2969C9.21875 13.8654 9.56853 13.5156 10 13.5156C10.4315 13.5156 10.7812 13.8654 10.7812 14.2969C10.7812 14.7283 10.4315 15.0781 10 15.0781Z" fill="white"/>
</svg>
