<svg width="17" height="16" viewBox="0 0 17 16" fill="none" xmlns="http://www.w3.org/2000/svg">
<rect opacity="0.01" x="0.333984" width="16" height="16" fill="white"/>
<path fill-rule="evenodd" clip-rule="evenodd" d="M5.45898 8.5H7.83398V10.875C7.83398 10.9437 7.89023 11 7.95898 11H8.70898C8.77773 11 8.83398 10.9437 8.83398 10.875V8.5H11.209C11.2777 8.5 11.334 8.44375 11.334 8.375V7.625C11.334 7.55625 11.2777 7.5 11.209 7.5H8.83398V5.125C8.83398 5.05625 8.77773 5 8.70898 5H7.95898C7.89023 5 7.83398 5.05625 7.83398 5.125V7.5H5.45898C5.39023 7.5 5.33398 7.55625 5.33398 7.625V8.375C5.33398 8.44375 5.39023 8.5 5.45898 8.5Z" fill="white"/>
<path fill-rule="evenodd" clip-rule="evenodd" d="M14.084 1.75H2.58398C2.30742 1.75 2.08398 1.97344 2.08398 2.25V13.75C2.08398 14.0266 2.30742 14.25 2.58398 14.25H14.084C14.3605 14.25 14.584 14.0266 14.584 13.75V2.25C14.584 1.97344 14.3605 1.75 14.084 1.75ZM13.459 13.125H3.20898V2.875H13.459V13.125Z" fill="white" fill-opacity="0.2"/>
</svg>
