<svg width="44" height="62" viewBox="0 0 44 62" fill="none" xmlns="http://www.w3.org/2000/svg">
<path fill-rule="evenodd" clip-rule="evenodd" d="M43.7767 23.6973C43.6069 23.3309 43.0703 22.4673 41.7484 22.3597C41.7071 22.3566 41.6667 22.3553 41.6253 22.3553L28.0116 22.2626L31.5143 3.73867C31.5249 3.68789 31.5322 3.63477 31.5375 3.5837C31.6607 2.4237 31.4409 1.50455 30.884 0.850357C30.4183 0.301205 29.7555 0 29.0172 0C28.1718 0 27.4367 0.397307 27.2319 0.519081C27.0484 0.627735 26.8859 0.770572 26.7514 0.940077L0.558881 33.9151C0.518819 33.9661 0.480625 34.0193 0.445696 34.0758C0.0424142 34.7113 -0.219684 35.7232 0.25352 36.6542C0.495289 37.1303 1.11927 37.9276 2.57889 37.9276C2.64881 37.9276 2.72074 37.9252 2.79833 37.9221L14.8507 37.913L8.12111 58.6453C8.08205 58.7638 8.05532 58.887 8.04066 59.0118C8.00566 59.3052 7.9462 60.3248 8.64304 61.1553C9.10045 61.6991 9.7579 62 10.4974 62C10.9503 62 11.4296 61.8906 11.9624 61.667C12.2 61.5662 12.4141 61.4122 12.5893 61.2153L43.3184 26.618C43.3833 26.5448 43.4423 26.4663 43.4955 26.3821C43.7012 26.0566 44.3323 24.9008 43.7767 23.6973Z" fill="white"/>
</svg>
