<svg width="25" height="25" viewBox="0 0 25 25" fill="none" xmlns="http://www.w3.org/2000/svg">
<rect opacity="0.01" x="0.5" y="0.5" width="24" height="24" fill="white"/>
<path fill-rule="evenodd" clip-rule="evenodd" d="M21.807 5.40547L20.4852 6.43906C18.6828 4.13516 15.8797 2.65625 12.732 2.65625C7.29688 2.65625 2.89766 7.05078 2.89063 12.4883C2.8836 17.9305 7.2922 22.3438 12.732 22.3438C16.9813 22.3438 20.6024 19.6484 21.9805 15.8727C22.0156 15.7742 21.9641 15.6641 21.8656 15.6312L20.5367 15.1742C20.4406 15.1414 20.3352 15.1906 20.3 15.2867C20.2578 15.4039 20.2109 15.5211 20.1617 15.6359C19.7563 16.5969 19.175 17.4594 18.4344 18.2C17.6938 18.9406 16.8313 19.5219 15.8727 19.9297C14.8813 20.3492 13.8242 20.5625 12.7367 20.5625C11.6469 20.5625 10.5922 20.3492 9.60079 19.9297C8.6422 19.5242 7.7797 18.943 7.03907 18.2C6.29845 17.4594 5.7172 16.5969 5.31173 15.6359C4.8922 14.6422 4.67891 13.5875 4.67891 12.4977C4.67891 11.4078 4.8922 10.3531 5.31173 9.35938C5.7172 8.39844 6.29845 7.53594 7.03907 6.79531C7.7797 6.05469 8.6422 5.47344 9.60079 5.06563C10.5922 4.64609 11.6492 4.43281 12.7367 4.43281C13.8266 4.43281 14.8813 4.64609 15.8727 5.06563C16.8313 5.47109 17.6938 6.05234 18.4344 6.79531C18.6664 7.02734 18.8844 7.27344 19.0859 7.53125L17.675 8.63281C17.5508 8.72891 17.593 8.92578 17.7453 8.96328L21.8609 9.97109C21.9781 9.99922 22.093 9.91016 22.093 9.79062L22.1117 5.55078C22.1094 5.39609 21.9289 5.30938 21.807 5.40547Z" fill="white"/>
</svg>
