<svg width="24" height="24" viewBox="0 0 24 24" fill="none" xmlns="http://www.w3.org/2000/svg">
<path fill-rule="evenodd" clip-rule="evenodd" d="M1.5 12C1.5 6.201 6.20101 1.5 12 1.5C17.799 1.5 22.5 6.20101 22.5 12C22.5 17.799 17.799 22.5 12 22.5C6.20101 22.5 1.5 17.799 1.5 12C1.5 12 1.5 12 1.5 12ZM5.49 10.11C5.48898 10.1177 5.48898 10.1254 5.49 10.1331V10.1779L5.4949 10.2059V10.222L5.5019 10.25V10.264L5.5089 10.2906C5.50933 10.2957 5.50933 10.3009 5.5089 10.306C5.51037 10.3147 5.51346 10.323 5.518 10.3305L5.525 10.3494L5.5334 10.3725L5.5404 10.3914L5.5495 10.4124L5.5579 10.4355C5.5579 10.4355 5.5628 10.4474 5.567 10.4495L5.5789 10.4726C5.58107 10.4778 5.58415 10.4825 5.588 10.4866L5.6006 10.5125C5.60276 10.5169 5.6056 10.5209 5.609 10.5244L5.6251 10.5503L5.6342 10.5643L5.6517 10.5874L5.6804 10.6L5.6958 10.6189L5.7119 10.6378L5.7238 10.6539L5.7567 10.6868L5.7903 10.7183L5.8057 10.7323L5.8232 10.7477C5.8293 10.754 5.8364 10.7592 5.8442 10.7631L5.8568 10.775L5.8813 10.7939L5.8953 10.8023C5.9044 10.8058 5.9107 10.8142 5.9184 10.8177C5.92355 10.8199 5.92829 10.823 5.9324 10.8268L5.9555 10.8408C5.96124 10.8427 5.96649 10.8458 5.9709 10.8499L5.9954 10.8618C6.00131 10.8618 6.00693 10.8643 6.0108 10.8688C6.01808 10.8728 6.02584 10.8759 6.0339 10.8779L6.0528 10.887L6.0738 10.894C6.08131 10.8973 6.08902 10.9001 6.0969 10.9024L6.113 10.9094L6.1389 10.9178C6.1438 10.9178 6.1508 10.9178 6.1543 10.9227L6.1809 10.9297L6.1963 10.9346L6.2257 10.9416H6.2411C6.25091 10.9444 6.26101 10.946 6.2712 10.9465H6.2873C6.29659 10.9477 6.30601 10.9477 6.3153 10.9465H17.5419C18.048 10.9267 18.4422 10.5004 18.4224 9.99437C18.4037 9.51606 18.0202 9.1326 17.5419 9.1139H8.61689L9.19649 8.5308C9.59099 8.21445 9.65433 7.63819 9.33798 7.2437C9.02163 6.8492 8.44537 6.78585 8.05088 7.10221C7.99596 7.14625 7.9463 7.19648 7.90289 7.2519L5.75808 9.3925L5.71398 9.4415L5.69998 9.4604C5.69395 9.46636 5.68856 9.47293 5.68388 9.48L5.67198 9.494L5.65588 9.5171L5.62998 9.557C5.6277 9.56149 5.62462 9.56552 5.62088 9.5689L5.60898 9.5948C5.60681 9.59998 5.60373 9.60472 5.59988 9.6088C5.59479 9.61587 5.59078 9.62365 5.58798 9.6319C5.58582 9.63771 5.58275 9.64315 5.57888 9.648C5.57489 9.65522 5.57206 9.66301 5.57048 9.6711L5.55998 9.69L5.55298 9.7096L5.54458 9.7327L5.53758 9.7502L5.52848 9.7747C5.52795 9.78006 5.52795 9.78545 5.52848 9.7908L5.52148 9.8167C5.52035 9.8213 5.52035 9.8261 5.52148 9.8307L5.51448 9.8601V9.8755C5.51172 9.88508 5.51008 9.89495 5.50958 9.9049V9.9238C5.50841 9.93239 5.50841 9.94111 5.50958 9.9497V10.04C5.50842 10.0547 5.50842 10.0694 5.50958 10.0841C5.5084 10.0918 5.5084 10.0995 5.50958 10.1072L5.49 10.11ZM18.3 14.5354C18.3058 14.5294 18.3109 14.5228 18.3154 14.5158L18.3273 14.5018L18.3448 14.4787L18.3539 14.4647C18.3539 14.4556 18.3658 14.4486 18.3693 14.4402C18.3716 14.4355 18.3747 14.4313 18.3784 14.4276L18.391 14.4017C18.3932 14.3965 18.3963 14.3918 18.4001 14.3877L18.412 14.3646C18.4133 14.3586 18.4162 14.353 18.4204 14.3485C18.4246 14.3413 18.4277 14.3335 18.4295 14.3254L18.4386 14.3065L18.4456 14.2869L18.4526 14.2638L18.4596 14.2463L18.4687 14.2232L18.4736 14.2057L18.4806 14.1798C18.4817 14.1752 18.4817 14.1704 18.4806 14.1658L18.4876 14.1364V14.121C18.4903 14.1114 18.492 14.1016 18.4925 14.0916V14.072C18.4954 14.0637 18.4966 14.0549 18.496 14.0461V13.9558C18.4972 13.9411 18.4972 13.9264 18.496 13.9117V13.8886C18.4971 13.8816 18.4971 13.8746 18.496 13.8676V13.8235L18.4911 13.7941V13.778L18.4841 13.75C18.483 13.7454 18.483 13.7406 18.4841 13.736L18.4771 13.7094L18.4722 13.694C18.4705 13.6854 18.4674 13.6771 18.4631 13.6695L18.4561 13.6506L18.4491 13.6275L18.44 13.61L18.4309 13.589L18.4218 13.5659C18.4218 13.5659 18.4169 13.554 18.4127 13.5519L18.4008 13.5288C18.3988 13.5237 18.396 13.5189 18.3924 13.5148L18.3798 13.4889L18.3707 13.477C18.3658 13.4665 18.3588 13.4595 18.3553 13.4511L18.3462 13.4371L18.3287 13.414L18.3175 13.4L18.3 13.3776L18.2839 13.3587L18.2699 13.3426C18.2605 13.3311 18.2504 13.3201 18.2398 13.3097L18.1908 13.2656L18.1719 13.2495C18.1659 13.2437 18.1593 13.2386 18.1523 13.2341L18.1397 13.2222L18.1152 13.2033L18.1012 13.1949C18.0921 13.1914 18.0851 13.183 18.0767 13.1795C18.072 13.1772 18.0678 13.1741 18.0641 13.1704L18.0382 13.1564C18.033 13.1542 18.0283 13.1511 18.0242 13.1473L18.0011 13.1354C17.9952 13.1345 17.9897 13.1321 17.985 13.1284C17.9778 13.1242 17.97 13.1211 17.9619 13.1193L17.943 13.1102L17.9234 13.1032C17.9159 13.0999 17.9082 13.0971 17.9003 13.0948L17.8828 13.0878L17.8597 13.0794L17.8422 13.0745L17.8163 13.0675L17.8002 13.0626L17.7722 13.0556H17.7561C17.7465 13.0529 17.7367 13.0512 17.7267 13.0507H17.7092C17.7004 13.0496 17.6914 13.0496 17.6826 13.0507H6.4525C5.94644 13.0309 5.52016 13.4251 5.50038 13.9312C5.48059 14.4372 5.87479 14.8635 6.38085 14.8833C6.40473 14.8842 6.42863 14.8842 6.4525 14.8833H15.381L14.8 15.4664C14.4252 15.8058 14.3965 16.3848 14.7359 16.7597C15.0754 17.1345 15.6544 17.1632 16.0292 16.8237C16.0517 16.8033 16.0732 16.7818 16.0936 16.7593L18.2391 14.6159L18.2692 14.5809L18.2832 14.5669L18.3021 14.5459L18.3 14.5354Z" fill="white"/>
</svg>
