<svg width="22" height="21" viewBox="0 0 22 21" fill="none" xmlns="http://www.w3.org/2000/svg">
<path fill-rule="evenodd" clip-rule="evenodd" d="M11 0C5.20156 0 0.5 4.70156 0.5 10.5C0.5 16.2984 5.20156 21 11 21C16.7984 21 21.5 16.2984 21.5 10.5C21.5 4.70156 16.7984 0 11 0ZM10.25 5.4375C10.25 5.33437 10.3344 5.25 10.4375 5.25H11.5625C11.6656 5.25 11.75 5.33437 11.75 5.4375V11.8125C11.75 11.9156 11.6656 12 11.5625 12H10.4375C10.3344 12 10.25 11.9156 10.25 11.8125V5.4375ZM11 15.75C10.3789 15.75 9.875 15.2461 9.875 14.625C9.875 14.0039 10.3789 13.5 11 13.5C11.6211 13.5 12.125 14.0039 12.125 14.625C12.125 15.2461 11.6211 15.75 11 15.75Z" fill="white"/>
</svg>
